<svg id="teil_Image" data-name="teil Image" xmlns="http://www.w3.org/2000/svg" viewBox="0 0 128 128"><defs><style>.cls-1{fill:#e7eaef;}.cls-2{fill:#d4d7dc;}.cls-3{fill:#d1d4d9;}.cls-4{fill:#e0e3e8;}.cls-5{fill:#dee1e6;}.cls-6{fill:#566a83;}.cls-7{fill:#556a86;}.cls-8{fill:#4f6683;}.cls-9{fill:#979da6;}.cls-10{fill:#7c8693;}.cls-11{fill:#848d99;}.cls-12{fill:#516680;}.cls-13{fill:#c6cacf;}.cls-14{fill:#6b7889;}.cls-15{fill:#9ba1aa;}.cls-16{fill:#7ea8d8;}.cls-17{fill:#6c86a8;}.cls-18{fill:#627fa3;}.cls-19{fill:#84afdb;}.cls-20{fill:#cacdd3;}.cls-21{fill:#4a6586;}.cls-22{fill:#7b8d9d;}.cls-23{fill:#667890;}.cls-24{fill:#6a7787;}.cls-25{fill:#dde0e3;}.cls-26{fill:#5b6f89;}.cls-27{fill:#5f7b9e;}.cls-28{fill:#e9ecf1;}.cls-29{fill:#4f6682;}.cls-30{fill:#6b798c;}.cls-31{fill:#5f7085;}.cls-32{fill:#75808f;}.cls-33{fill:#8e96a0;}.cls-34{fill:#4c6585;}.cls-35{fill:#a2a7af;}.cls-36{fill:#9097a1;}.cls-37{fill:#b1b6bc;}.cls-38{fill:#5b7eab;}.cls-39{fill:#939aa3;}.cls-40{fill:#7e8794;}.cls-41{fill:#a6acb3;}.cls-42{fill:#7fafe9;}.cls-43{fill:#9fa5ad;}.cls-44{fill:#a4a9b1;}.cls-45{fill:#678ec1;}.cls-46{fill:#b4b9bf;}.cls-47{fill:#80aee6;}.cls-48{fill:#a1a7ae;}.cls-49{fill:#c8ccd1;}.cls-50{fill:#4f627d;}.cls-51{fill:#a2a8b0;}.cls-52{fill:#a2a8af;}.cls-53{fill:#88909b;}.cls-54{fill:#668cbe;}.cls-55{fill:#9ea4ad;}.cls-56{fill:#b0b5bb;}.cls-57{fill:#8e96a1;}.cls-58{fill:#949ba4;}</style></defs><path class="cls-1" d="M66,127.91H60a3.88,3.88,0,0,1-.75-1c-3.48-4.5-8.88-6.58-13-10.31-1.62-1.48-4.1-2.39-3.71-5.3A33.74,33.74,0,0,0,42.86,94c-2-8.75-.32-17.49-1.33-26.19-.44-3.79.12-7.62-3.34-10.38-.53-.42-.31-1.21.16-1.78a3.36,3.36,0,0,1,2.13-.58,7.28,7.28,0,0,1,2.1.48C46.1,56.7,49.2,59,53,59.33a8.29,8.29,0,0,0,1.12-.26c1.14-6.65.65-7.4-6.74-10.44a9.59,9.59,0,0,1-1.16-.57c-.72-.39-1.41-.82-2.14-1.19a15.53,15.53,0,0,0-1.64-.65c-.4-.1-.78-.23-1.17-.36a9.94,9.94,0,0,1-1.18-.46c-1.28-.79-3-1.12-3.36-2.92,1.55-2.73,2.33-5-2.35-4.79a3.4,3.4,0,0,1-2.64-1.21c-4.13-5-10.17-5.19-15.79-6.41a28.33,28.33,0,0,1-6.51-2.3,9.42,9.42,0,0,0-8.11-.39A1.57,1.57,0,0,1,.07,27V14c4.17-2.84,9.16-3,13.84-3.8C27.37,8,40.39,4,53.73,1.36a57.28,57.28,0,0,1,26.57.72c13.28,3.72,26.76,6.46,40.16,9.59,7,1.62,6.87,1.62,7.07,9,.42,16.14-1,32.15-3,48.14-.21,1.74,0,3.79-2.41,4.4-2.91-3.89-2.73-8.37-2.34-12.84.57-6.64,1.84-13.2,2.55-19.81.26-2.48,1.45-5.95-2.78-6.85-1.44.12-2.86.59-4.32.2-1.64-2.08-3.52-2.88-6.14-1.56a10,10,0,0,1-4.31.72c-1.61,0-3.32-2.16-4.51-.68a8.45,8.45,0,0,0-1.9,6.87,2.3,2.3,0,0,1-.1,1c-1.28,2.42-3.84,2.78-6,3.74-3.12.87-6.11,2.11-9.13,3.25a11.49,11.49,0,0,0-2.44,1c-1,.43-1.84,1.22-2.85,1.67-1.93.94-4.21,1.09-5.84,2.64a3.49,3.49,0,0,0-.28,1.11,11.3,11.3,0,0,1-.08,1.16,15.75,15.75,0,0,0-.27,3.5c0,.42.06.83.1,1.25.27,1.68,1.25,1.57,2.48,1A53.33,53.33,0,0,0,79.78,58c2.63-1,4.83-2.88,7.32-4.19,2.11-.78,4.14-2.64,6.48-.51,1.09,1.74,1,3.68.92,5.61s0,3.87,0,5.81c0,1.11,0,2.23-.1,3.34C94,76.73,93.84,85.4,92.7,94c-.67,4.66.28,9.32-.13,14,.26,3-2,4.43-4,5.75C81.14,118.58,74,123.86,66,127.91Z"/><path class="cls-2" d="M122,73c0,5.48-1.38,10.78-2,16.17a3.28,3.28,0,0,1-1.47,2.48q-10.29,6.92-20.61,13.79A7,7,0,0,1,96,106c-1.69-1.89-2.65-3.51,1.23-3.31.2,0,.31.37.57.16a2.76,2.76,0,0,1-.67-1.29c-.49-7.17,1.77-14.1,1.79-21.28,0-3.6-.07-7.28.21-10.91a11.1,11.1,0,0,1,1.54-3.24c1.5-2.35.92-4.78.26-7.22-.32-4.69-.83-9.45,4-12.49a9.59,9.59,0,0,1,3.15-1.48,13.32,13.32,0,0,0,2.51-.8c.39-.21.8-.39,1.21-.57,8-3.48,8-3.48,7.09-11.8,2.88-.35,4.77,1.23,5,4.53a45.2,45.2,0,0,1-.88,11.29C121.58,56,120.55,64.41,122,73Z"/><path class="cls-3" d="M60.05,126.9c-9-7-18.51-13.35-27.85-19.9-7.86-5.5-15.64-11.08-23.14-17.06C8.2,84.52,8.27,79,7.5,73.57c-.27-1.9-.19-3.95-1.45-5.61h0c.33-9.73-2.27-19.21-2.46-28.9a11.27,11.27,0,0,1,1.72-6.62C7.38,30.89,7.8,32.72,8.2,34a19.15,19.15,0,0,1,.38,5.3A2.09,2.09,0,0,1,8,40.86a6.1,6.1,0,0,0,.91-.31c4.13.22,7.12,3.32,10.94,4.32,2,1.57,4.8,2,6.13,4.42a5.36,5.36,0,0,1,.44,1.59A146,146,0,0,0,28.24,72c.07,7.23,2,14.34,1.54,21.6a26,26,0,0,1,.82,4.89c.25,1.67,1.26,1.7,2.53,1.24,1.56-.4,1.51-1.64,1.48-2.87.09-1.46.17-2.92,1.31-4a1.43,1.43,0,0,1,1.45.17c2,3.19,1,6.73,1.05,10.11.09,2.61.43,4.89,2.78,6.42A5,5,0,0,1,43,111.93C48.18,117,54.5,120.63,60.24,125,61.32,125.81,62.39,126.48,60.05,126.9Z"/><path class="cls-4" d="M43,111.93a2,2,0,0,1-2-1A14.06,14.06,0,0,1,38,100.86a29.89,29.89,0,0,0-1.23-11.11,12,12,0,0,1,.33-9.2c1.43-3-1-1.22-1.77-1.44a3.23,3.23,0,0,1-1.44-1.86c-.45-8-2.52-15.87-.52-23.87,3.2-2.19,5-.8,6,2.41-1.4,1.13-.34,1.8.58,2,2.82.5,3.3,2.38,3.1,4.75-.6,7.06,1.08,14.1.08,21.19a11.12,11.12,0,0,0,1.33,7.6c1.48,2.48-.24,5.65.47,8.6.6,2.5.09,5.27.14,7.91C45.09,109.56,44.89,111.14,43,111.93Z"/><path class="cls-5" d="M6.18,31.85A56,56,0,0,0,5.06,45.58a8.77,8.77,0,0,0,.07,2.47C7.69,54.6,7,61.27,6.05,68c-2.23-2.88-1-6.41-1.5-9.56C3.06,48,1.3,37.56,1.06,27c1.48-3.73,4.55-2.18,6.69-1.48,4.17,1.35,7.82,4.39,12.69,3.08,1-.27,1.62,1,2.26,1.71.39.45.63,1.48,1.44.88,3.92-2.86,5.11.74,7,2.85C32.72,35.89,34.21,38,37.2,36c1.42-1,2.14.67,2.46,1.59.52,1.48,1.15,3.24-.88,4.32l-1.71.91c-3.12,1.6-5.39-.84-8-1.65-1.59-.84-3.33-1.33-5-2.08a15.67,15.67,0,0,0-2.45-.9,13.19,13.19,0,0,1-1.26-.4c-2.86-1.1-6-1.53-8.46-3.59a14.43,14.43,0,0,0-2.88-1.32C8.09,32.53,7.4,31.43,6.18,31.85Z"/><path class="cls-6" d="M29,40c2.77.68,5.17,2.41,8.05,2.78,1.26.85,3.07.69,4,2.16.42,1.36-.15,3.38,2.24,3.39a.56.56,0,0,1,.46.68.88.88,0,0,0,.14-.89c.79-1.32,2.2-.4,3.2-.94l2.27.85c7,2.65,8.39,5.11,6.52,12.35-.54,2.08-1.1-.72-1.85-.4-.59-.61-1.54-.53-2.13-1.13-1-1.85-3.39-1.23-4.54-2.28a43.72,43.72,0,0,1,4.4,2c.53.87,1.59.81,2.33,1.31-.73,1.32-1.77,1.11-2.92.63-3-1.23-6-2.43-8.94-3.64l-1.16-.71-1.72-.39c-1.17-2.08-3.29-2.4-5.32-2.88.18-1.07,0-1.86-1.35-1.87-.44-.53-.62-1.29-1.34-1.59a4.17,4.17,0,0,1-1.64-.36A8.91,8.91,0,0,1,28,47.25c-1-1.69-2.92-2.7-3.62-4.65a2.55,2.55,0,0,1,.51-2C26.21,39.87,27.49,39,29,40Z"/><path class="cls-7" d="M100.29,69c.84,8.37-.06,16.64-1.47,24.87-.45,2.67.8,5.49-.81,8-5.19.76-6.23,0-6.49-4.79-.06-1.12.24-2.29-.4-3.33l1.8-25.9c1.47-1.21,2.92-2.47,4.94-2.63a3.09,3.09,0,0,1,1.36.42C100.22,66.6,99.93,67.91,100.29,69Z"/><path class="cls-8" d="M82,46.11c3.42-.66,6.35-2.82,9.85-3.23,2.38-.59,4.82-.89,7.09-2,1.62-.82,3.7-1.33,4.86.71s-.93,2.86-2,4c-.89,1-2.24,1.4-3.14,2.39-.15.23-.32.47-.49.7l.1-.13a2.07,2.07,0,0,1,2.58-1.09c3.11,2.27-.24,3.53-.8,5.24-.25.35-.51.68-.76,1-.7,1.24-.21,2.57-.3,3.85-.15,2.07-.93,3.48-3.36,3.06a2,2,0,0,1-1-.88,26.75,26.75,0,0,1,.1-5.73l.23-.36a2.66,2.66,0,0,0-.93-.29,1.9,1.9,0,0,1-.74-.87c-.41-.84.29-1.63.06-2.46a1.24,1.24,0,0,1-1.17,1.31c-1.37-1.6-3.64,2.57-4.74-.73.16-.48-.33-1.25.62-1.4-1,0-.48.85-.73,1.28-1,1.34-1.85.56-2.77,0C83.77,49,81.79,48.21,82,46.11Z"/><path class="cls-9" d="M118.94,31.72c3,2.51,2.9,8.63-.32,10.19-2.48,1.19-4.83,2.76-7.69,3-2.65-.21-4.46-1.13-3.6-4.29-4.54,2.43-3.51-1-3.55-3.36,3.17-3,7.28-3.44,11.27-4.23A5.18,5.18,0,0,0,118.94,31.72Z"/><path class="cls-5" d="M115.05,33c-2.18,3.15-6.15,2.27-9,4-.64.38-1.57.3-2.17.92-1.45,2.14-3.21,3.4-5.87,2-1-1.17-3-2.12-1.26-4a5.27,5.27,0,0,0,1.53-4.34c-.12-1.85,2.15-3.24,3.4-1.66,3.23,4,6.32.93,9.38.3,1.18-.24,2.09-1.51,3.6-.84C117,30.39,113.37,32,115.05,33Z"/><path class="cls-10" d="M98,39.91c2.17-.07,3.79-1.71,5.87-2,3.23-.58-.51,3,1.59,2.76,1.43-.15,2.79-1,4.22-1.35a1.45,1.45,0,0,1,1.84,1.23c0,1.78-1.15.95-2,.71a1.75,1.75,0,0,0-1.86.21c.23,2,2.42,2.07,3.28,3.45v0c-.46.68-1.36.46-1.93.94L106.05,47a1.76,1.76,0,0,1-1.27-.78c-.56-.72-.38.21-.6.31A3.38,3.38,0,0,1,101,48c-1.14-.12-2,.61-3,1h0c.3-3.4,3.64-4.36,5.84-7.31-4.41-.67-8.1,2.48-12,1.24Z"/><path class="cls-11" d="M87,54.94a15.28,15.28,0,0,1-6.8,4.13c-2.25,1-4.54-.35-6.8.14a3.83,3.83,0,0,1-3.28-1.35,6,6,0,0,1,1-3.94c2-3.16,7.14-3.88,11.33-1.59a2,2,0,0,1-.09,1.33c-.37.88-1.82.55-1.93,1.71-.21.3-.13.61,0,.54a4.37,4.37,0,0,0,.82-1c.28-.34.56-.64.86-.94a4.5,4.5,0,0,1,1.06-.79,3.79,3.79,0,0,1,2-.08A2.5,2.5,0,0,1,87,54.94Z"/><path class="cls-12" d="M82.08,52.93c-2-2.14-4,.25-5.87-.1a5.66,5.66,0,0,0-5.12,1.09h0a2,2,0,0,1-.78-1c1.37-3.65,4.73-3.48,7.72-4,1.54.05,2.88-1,4.45-.83,1,.17,1.7.56,1.87,1.61.33.4-2,1,.21,1.43,1.84.34,2.52,1.48.45,2.77l-1.94,0A2.07,2.07,0,0,1,82.08,52.93Z"/><path class="cls-13" d="M91.12,93.8a6.69,6.69,0,0,1,.75,1.78c.55,5.26.66,5.4,6.14,6.34,0,.6,1,2.06-.24,1.66C94,102.32,96.38,105,96,106h0c-.55.55-1.48.37-2,1v0a7.42,7.42,0,0,0-1,1h0c-.34.33-.73.6-1,1l0,.07c-2.12-2.91-.65-6.24-1-9.36A40.19,40.19,0,0,1,91.12,93.8Z"/><path class="cls-14" d="M85,53.88c1-1.6-.18-1.64-1.28-2.19-1.88-.92-1.2-1.59.49-1.77h.66c.73,0,1.37,1.25,2.17.15q.39-.95,1-.09c.23.37.6,1.64.76.91,1.18-5.46,2.22-.45,3.28,0l-.1.45-.45.12c.14.25.35,0,.54.08a1.35,1.35,0,0,1,1.3,1c-.11.17-.22.34-.34.5-2.15.18-3.79,1.92-6,2Z"/><path class="cls-15" d="M73.92,58.08c2.42-1.77,4.1,1.15,6.27,1-2.86,2-6.21,2.87-9.56,4.59L70.05,59C71.07,57.51,73,60,73.92,58.08Z"/><path class="cls-16" d="M47.1,47.17c-.7,1.14-2.43.52-3.06,1.8h0c-4.75.44-4.82.35-3-4l1,.12a.69.69,0,0,0,1,.12,1.1,1.1,0,0,1,1,.86c.53.46,1.31.41,1.82.91Z"/><path class="cls-17" d="M96,52.92c-1.31,2.21,2,5-.93,7-1,.5-1.44-.2-1.83-.94L93,53l0-.07c.37-.46.72-.43,1,0h1C95.34,52.45,95.63,52.44,96,52.92Z"/><path class="cls-18" d="M98,65.9c-1.6.94-2.93,2.57-5.12,2l.24-3c.86-.9-.37-2.81,1.54-3.2,1,.28,1.44,1.31,2.41,1.6.19,0,.37.12.55.18a1.78,1.78,0,0,1,.84.81A1.52,1.52,0,0,1,98,65.9Z"/><path class="cls-19" d="M84.86,49.91l-.33,0-.33,0c-.45-.91-1.33-1-2.17-1.1-.76-.46-2.44.09-2-1.76l2-1C83.08,47.29,85.49,47.48,84.86,49.91Z"/><path class="cls-20" d="M73.92,58.08c.47.42,1.3.82,1.33,1.28.07,1-.91.57-1.44.59-1.34.06-2.34-1.28-3.76-1l.06-1.12Z"/><path class="cls-21" d="M95,61.82c-1.37.56-.61,2.41-1.83,3.06l0-5.86L95,60h0A1.23,1.23,0,0,1,95,61.82Z"/><path class="cls-22" d="M80.06,47.06l2,1.76c-1.33.58-2.64,2.22-4,.08C78.44,48,78.93,47.18,80.06,47.06Z"/><path class="cls-23" d="M45.87,46.94c-.74,0-1.5,0-1.82-.91C44.85,46,45.61,45.94,45.87,46.94Z"/><path class="cls-11" d="M70.29,52.9l.78,1C70.45,53.85,70.25,53.47,70.29,52.9Z"/><path class="cls-24" d="M43,45.17c-.39.54-.71.51-1-.12A1.55,1.55,0,0,1,43,45.17Z"/><path class="cls-4" d="M41.08,56.18c.58-.07.89.28,1.16.71A1.24,1.24,0,0,1,41.08,56.18Z"/><path class="cls-2" d="M94,107a1.84,1.84,0,0,1,2-1A2,2,0,0,1,94,107Z"/><path class="cls-2" d="M93,107.94l1-1Z"/><path class="cls-2" d="M92,108.89l1-1A1.34,1.34,0,0,1,92,108.89Z"/><path class="cls-25" d="M6.05,68C8.79,69.71,9,72.57,9,75.33c.1,4.87.77,9.74,0,14.61A71.39,71.39,0,0,1,6.05,68Z"/><path class="cls-26" d="M95,61.82,95,60c2,.13,3.29-.47,2.92-2.79a22.34,22.34,0,0,1-.65-3.84c0-1.7,1.09-.34,1.69-.39,1.15,1.73.1,3.74.7,5.52a1.94,1.94,0,0,1,.43.75,4.61,4.61,0,0,0-.52-.94c-.37-1.78.5-3.67-.59-5.35.86-1,0-3,2.17-3.28.67-.09-.07-1.1-.16-1.69.71-1.16,2-1.39,3.07-2,.28-.43.57-.46.87,0l1.1,1.14c-5.53,2.65-3.49,7.72-3.84,12,.57,1.63.18,3.31.29,5-1.1,2.38-2.41.33-3.64.17a2.5,2.5,0,0,1-.22-1.84c-.17.57,0,1.3-.77,1.6H97c-.22.62-.57,1.27-1.25,1.26-1,0-.63-.92-.7-1.47A17.6,17.6,0,0,1,95,61.82Z"/><path class="cls-27" d="M99.12,63.92c1.48-1.18,1.94.26,2.66,1,.88.61.85,1.27.09,2L100.29,69c-1.48-.59-1.24-1.9-1.29-3.09A1.3,1.3,0,0,1,99.12,63.92Z"/><path class="cls-28" d="M101.87,66.93l-.09-2,.43-5.91C103.28,61.73,103.75,64.38,101.87,66.93Z"/><path class="cls-9" d="M109,45.85a2.11,2.11,0,0,1,1.93-.94A1.66,1.66,0,0,1,109,45.85Z"/><path class="cls-29" d="M33.07,51c1.77-.08,1.53.85,1,1.94-.82,4.61,0,9.21.49,13.75a101.24,101.24,0,0,1,.39,11.28,21.65,21.65,0,0,0-1.1,2.21,9.18,9.18,0,0,0,0,5,23.15,23.15,0,0,1,.67,7.27c-.42,4-1.41,4.42-5.33,2.43-1.83-4.77-.83-9.91-1.85-14.81-.53-2.51-.26-5.19-.35-7.79-.23-1.69-1.21-3.51.82-4.79a2.49,2.49,0,0,1,1.27.16c.38.35.54.88.91,1.23a1.33,1.33,0,0,0,.81-.07,3.74,3.74,0,0,0,.66-.53,2.19,2.19,0,0,0,.05-1.45,8.32,8.32,0,0,0-1.62-2.64c-.31-.31-.58-.65-.86-1A6.56,6.56,0,0,1,27.59,61a2.78,2.78,0,0,1,.14-1.31,4,4,0,0,1,1.39-1.45c2.63-1.35,1-4.28,2.25-6.13A2.2,2.2,0,0,1,33.07,51Z"/><path class="cls-30" d="M29.11,94.89c.35-.32.75-1,1.06-.93,2.91.37,2.76.39,2.93-2.82.11-2.21-.74-4.18-1-6.28,1.18-1.81.11-4,.93-5.86a1.76,1.76,0,0,1,1.87-1.06l1,1.25a1.82,1.82,0,0,1,.79,1.66,10.44,10.44,0,0,0-.1,2.68c.13,2.43.19,4.86.39,7.28a3.39,3.39,0,0,1-.83,2.1l-.18,5c-1,.79-.87,2.3-2,2.93l-4.16,1.91A16.72,16.72,0,0,1,29.11,94.89Z"/><path class="cls-1" d="M36,80.7l0-1.51.33-3.75c2.74,1.35,4.42,2.9,2.07,5.59-1.82,2.08-1.08,4.71-.71,6.45A69.4,69.4,0,0,1,39,104c-.07,2.69,2.68,4.28,2.08,7-3.37-1.44-4.38-4-4.07-7.55s.07-7,.08-10.45c-.72-.46-.34-1.44-.93-2l-.2-8.73A1.42,1.42,0,0,1,36,80.7Z"/><path class="cls-31" d="M30.08,63c1.82.74,2.2,2.52,2.93,4.06-.89.78,0,2.15-1,2.92-.32,0-.65,0-1,0a2.33,2.33,0,0,1-.76-2.55c-.06-.23.42-.35.15-.63a1.65,1.65,0,0,1-.76.57s-.33.37-.33.38-.43.26-.43.26c-2.83.44-1.46,2.82-2,4.32a106.76,106.76,0,0,1-1.64-22.36l.58-.28.61.15a3.16,3.16,0,0,1,.83.76,1.22,1.22,0,0,1,.18.87l-.25.28.92.18c3.73,2,4,4.32.92,7.12l-.8,1a2.93,2.93,0,0,0-.72-.17A2.06,2.06,0,0,0,28.11,61a3.2,3.2,0,0,1,1.91,2Z"/><path class="cls-32" d="M25.12,43a6.38,6.38,0,0,1,3.93,3.94.94.94,0,0,1,.33.84c-.05.3-.12.46-.19.46-1.21,1.28-2.79.7-4.22.87L19.1,45.87A21.33,21.33,0,0,0,16.59,43a2.71,2.71,0,0,1-.05-2c1.29-2.06,3.12-1.59,5-1.07a6.4,6.4,0,0,1,1.24.59C23.72,41.18,24.22,42.27,25.12,43Z"/><path class="cls-33" d="M17,43c2.12,0,2,1.48,2.07,2.9-3.94-1-7.23-3.5-11-5h0c-2-2.73-.08-6.3-1.94-9.06,1-1.44,2-1,3,0C11.21,36,12.31,40.76,17,43Z"/><path class="cls-34" d="M25,49.08c1-1.63,2.54-1,3.92-1,.79.5,1,1.44,1.6,2.07.13,1.71-.4,2.56-2.14,1.47-.78-.49-1.16-1.57-2.26-1.63l-.82,0A2.62,2.62,0,0,1,25,49.08Z"/><path class="cls-35" d="M34,100.81c.16-1.34-.11-3,2-2.93C36.08,99.4,36.25,101,34,100.81Z"/><path class="cls-4" d="M36.13,91a2,2,0,0,1,.93,2h-.89Z"/><path class="cls-5" d="M8.13,40.91l-.46.45c0-.09,0-.21.09-.26a1.55,1.55,0,0,1,.36-.19Z"/><path class="cls-36" d="M22.08,41c-1.67.44-3.33-1.2-5,0-3,2-5-.53-5.95-2.22-.71-1.33-2.51-4.5,1-5.87,2.58,2.27,6.33,2,9,4C21.07,38.37,22.87,39.36,22.08,41Z"/><path class="cls-37" d="M12.12,32.88c-1.25,5.84-.53,7,5,8.09L17,43c-6.65-1.73-7.22-2.67-7.88-11.08C10.2,32,11.37,31.84,12.12,32.88Z"/><path class="cls-14" d="M22.08,41A24.77,24.77,0,0,1,20,38.25c-.8-1.34.5-1.1,1.15-1.32a3.15,3.15,0,0,1,.91.25c.66.38,1.5.24,2.12.71,1.74.44,3.51.78,4.87,2.1l-4,1a2.17,2.17,0,0,1-3,0Z"/><path class="cls-36" d="M24.15,37.89A2,2,0,0,1,22,37.18,2.15,2.15,0,0,1,24.15,37.89Z"/><path class="cls-38" d="M26.09,50c1.4-1.67,1.7,0,2.36.75,1.16,1.34,1.44.45,1.6-.67q-.45-.41-.27-.75c.12-.23.24-.34.35-.34L32,48a3.67,3.67,0,0,1,0,3.93,34.73,34.73,0,0,0,.06,4.79c.42,2.82-1.11,2.77-3.05,2.34,1.89-3.07.29-5.14-2-7l0,0v-1l-1-1Z"/><path class="cls-1" d="M52,58.94c-3.19-.2-5.81-1.68-8.78-3.81,4.23-.63,7.34,2.54,11,1.22C54,57.85,52.2,57.72,52,59Z"/><path class="cls-39" d="M22.05,41l3,0,.08,2A2.92,2.92,0,0,1,22.05,41Z"/><path class="cls-40" d="M32.05,51.88,32,48c2.08.41.53,2.07,1,3Z"/><path class="cls-41" d="M30.13,48.94,30.05,50c-.85-.4-1-1.19-1.16-2l.16-1.13C29.92,47.32,30,48.13,30.13,48.94Z"/><path class="cls-1" d="M54.1,59.9a2.12,2.12,0,0,1-2.07-1L52,59c.77.16,1.65.07,2.08.95Z"/><path class="cls-16" d="M44,49l1.27.25-.31.5-1-.76Z"/><path class="cls-42" d="M36.51,49.42a4.62,4.62,0,0,1,.3.86c0,.08-.23.21-.36.31a5.33,5.33,0,0,1-.29-.85C36.14,49.65,36.39,49.53,36.51,49.42Z"/><path class="cls-43" d="M99.12,63.92l-.12,2-.48,0L98,65.9l-.17-2c.22-.43,0-1.23.78-1.14C98.84,62.82,99,63.53,99.12,63.92Z"/><path class="cls-18" d="M96.2,70.11a4,4,0,0,1,.64-.48c.33.3.75.61.86,1s-.15,1-.75.55A3.8,3.8,0,0,1,96.2,70.11Z"/><path class="cls-44" d="M97.43,89.24c-.56-.89-.68-2.34,0-2.51.84-.22.41,1.07.45,1.71C97.9,88.69,97.6,89,97.43,89.24Z"/><path class="cls-45" d="M94.05,53l-1,0a1.93,1.93,0,0,0-2-.94.71.71,0,0,1-.25-.66c0-.23.1-.35.16-.35L92,50.84c2-.82.16-3.14,1.81-4.35C95.78,48.65,93.23,50.91,94.05,53Z"/><path class="cls-46" d="M96,52.92l-.44,0h-.43c.06-.5-.32-1.23.58-1.26A6.15,6.15,0,0,1,96,52.92Z"/><path class="cls-26" d="M98,48.94l-.39,1.38c-1-.77,0-1,.4-1.37Z"/><path class="cls-47" d="M88,50a2.6,2.6,0,0,1-1,.09c0-.54-.32-1.27.59-1.35A5.52,5.52,0,0,1,88,50Z"/><path class="cls-48" d="M105,45.89l-.43,0h-.44c0-1.06.3-1.87,1.56-1.83.19,0,.37.3.55.46Z"/><path class="cls-49" d="M82,55c-1.86,1.73-1.86,1.73-4.32,1.49L80.05,55C80.72,54.42,81.38,54.29,82,55Z"/><path class="cls-50" d="M82,55l-2,0c-.21-2,1.42-.44,2-1l0,0Z"/><path class="cls-14" d="M82.08,52.93l1,1L82,54l0,0Z"/><path class="cls-8" d="M91,51l.09,1C90.36,51.69,90.21,51.36,91,51Z"/><path class="cls-51" d="M100,58.89c-2-1.71-.4-4-1-6l0,0c1.69,1.77.74,3.95,1,6Z"/><path class="cls-27" d="M100,58.88a1.64,1.64,0,0,1,.87,2,.73.73,0,0,1-.37.27c-.63-.65-.36-1.51-.49-2.28Z"/><path class="cls-18" d="M97,64l-.4-.43c.08,0,.2,0,.24.09A1.29,1.29,0,0,1,97,64Z"/><path class="cls-52" d="M29.81,78.06c-1.3-1-2.09-2.24-1-3.73a.9.9,0,0,1,.89-.16C31.34,75.35,29.43,76.7,29.81,78.06Z"/><path class="cls-53" d="M33.05,79c.14,2,1.66,4.27-.93,5.86C32.35,82.9,31.11,80.69,33.05,79Z"/><path class="cls-54" d="M28.91,68l.09-1,0,0,1-1a.64.64,0,0,1,1,.12v3.89H29.91c-.85.15-1.36,0-.88-1A5.25,5.25,0,0,0,28.91,68Z"/><path class="cls-55" d="M29,68.94l.88,1c-.16.82-.68,1.79-1.42,1.24S27.89,69.47,29,68.94Z"/><path class="cls-56" d="M28.11,61c-1.58-.84-1.22-2-.6-3.27.86.61.51,1.54.75,2.28A3.3,3.3,0,0,0,28.11,61Z"/><path class="cls-57" d="M32,70c.06-1.07-.24-2.25,1-2.92C32.89,68.09,33.52,69.39,32,70Z"/><path class="cls-4" d="M36,80.7l0,1.52C35.31,81.71,35.31,81.2,36,80.7Z"/><path class="cls-38" d="M27.07,52c-.1.75.16,1.58-.46,2.22,0,0-.32-.15-.36-.27A1.56,1.56,0,0,1,27,52Z"/><path class="cls-29" d="M27.82,62.94c-.05.12-.08.32-.16.34-.3.08-.45-.12-.37-.48a.36.36,0,0,1,.31-.17C27.7,62.67,27.75,62.83,27.82,62.94Z"/><path class="cls-29" d="M30.08,63l-.46.4.4-.46Z"/><path class="cls-29" d="M31,66.05q-.49-.08-1-.12C30.48,65.17,30.79,65.32,31,66.05Z"/><path class="cls-29" d="M29,66.94l-.39-.43.43.39Z"/><path class="cls-34" d="M26.07,50a1.28,1.28,0,0,1,1,1Z"/><path class="cls-58" d="M23.06,46l-1.36-.37c.74-.91,1-.09,1.35.39Z"/><path class="cls-58" d="M23.05,46l1.39.36c-.75.95-1,.13-1.38-.38Z"/></svg>