<svg id="teil_Image" data-name="teil Image" xmlns="http://www.w3.org/2000/svg" viewBox="0 0 384 128"><defs><style>.cls-1,.cls-59{fill:#e7eaef;}.cls-2{fill:#d4d7dc;}.cls-3{fill:#d1d4d9;}.cls-4{fill:#e0e3e8;}.cls-5{fill:#dee1e6;}.cls-6{fill:#566a83;}.cls-7{fill:#556a86;}.cls-8{fill:#4f6683;}.cls-9{fill:#979da6;}.cls-10{fill:#7c8693;}.cls-11{fill:#848d99;}.cls-12{fill:#516680;}.cls-13{fill:#c6cacf;}.cls-14{fill:#6b7889;}.cls-15{fill:#9ba1aa;}.cls-16{fill:#7ea8d8;}.cls-17{fill:#6c86a8;}.cls-18{fill:#627fa3;}.cls-19{fill:#84afdb;}.cls-20{fill:#cacdd3;}.cls-21{fill:#4a6586;}.cls-22{fill:#7b8d9d;}.cls-23{fill:#667890;}.cls-24{fill:#6a7787;}.cls-25{fill:#dde0e3;}.cls-26{fill:#5b6f89;}.cls-27{fill:#5f7b9e;}.cls-28{fill:#e9ecf1;}.cls-29{fill:#4f6682;}.cls-30{fill:#6b798c;}.cls-31{fill:#5f7085;}.cls-32{fill:#75808f;}.cls-33{fill:#8e96a0;}.cls-34{fill:#4c6585;}.cls-35{fill:#a2a7af;}.cls-36{fill:#9097a1;}.cls-37{fill:#b1b6bc;}.cls-38{fill:#5b7eab;}.cls-39{fill:#939aa3;}.cls-40{fill:#7e8794;}.cls-41{fill:#a6acb3;}.cls-42{fill:#7fafe9;}.cls-43{fill:#9fa5ad;}.cls-44{fill:#a4a9b1;}.cls-45{fill:#678ec1;}.cls-46{fill:#b4b9bf;}.cls-47{fill:#80aee6;}.cls-48{fill:#a1a7ae;}.cls-49{fill:#c8ccd1;}.cls-50{fill:#4f627d;}.cls-51{fill:#a2a8b0;}.cls-52{fill:#a2a8af;}.cls-53{fill:#88909b;}.cls-54{fill:#668cbe;}.cls-55{fill:#9ea4ad;}.cls-56{fill:#b0b5bb;}.cls-57{fill:#8e96a1;}.cls-58{fill:#949ba4;}.cls-59{font-size:95.31px;font-family:Overpass-SemiBold, Overpass;font-weight:600;}.cls-60{letter-spacing:-0.09em;}</style></defs><path class="cls-1" d="M55.35,102.63H51.09a2.62,2.62,0,0,1-.53-.75c-2.47-3.19-6.3-4.67-9.2-7.31-1.15-1-2.91-1.7-2.64-3.77a24,24,0,0,0,.18-12.24C37.45,72.35,38.67,66.14,38,60c-.32-2.69.08-5.41-2.37-7.37-.38-.3-.22-.86.11-1.26a2.4,2.4,0,0,1,1.51-.41,4.75,4.75,0,0,1,1.49.34c2.51.8,4.71,2.47,7.42,2.68a6.67,6.67,0,0,0,.8-.19c.81-4.72.46-5.26-4.79-7.42a6.89,6.89,0,0,1-.82-.4c-.51-.27-1-.58-1.52-.84s-.76-.33-1.16-.47a5.69,5.69,0,0,1-.83-.25,6.65,6.65,0,0,1-.84-.33c-.91-.55-2.1-.79-2.39-2.07,1.1-1.94,1.66-3.58-1.66-3.4A2.37,2.37,0,0,1,31,37.72C28.09,34.19,23.8,34,19.81,33.17a20.47,20.47,0,0,1-4.62-1.63,6.69,6.69,0,0,0-5.76-.28A1.08,1.08,0,0,1,8.52,31V21.76c3-2,6.5-2.16,9.83-2.7,9.55-1.54,18.79-4.41,28.26-6.27a40.7,40.7,0,0,1,18.86.51c9.43,2.64,19,4.59,28.51,6.81,5,1.15,4.88,1.15,5,6.35a233.66,233.66,0,0,1-2.1,34.17c-.15,1.24,0,2.7-1.71,3.13-2.07-2.76-1.93-5.94-1.66-9.12.4-4.71,1.3-9.36,1.81-14.06.19-1.76,1-4.22-2-4.86a8.75,8.75,0,0,1-3.06.14c-1.17-1.47-2.5-2-4.36-1.11a7.23,7.23,0,0,1-3.06.52c-1.14,0-2.36-1.54-3.2-.48a6,6,0,0,0-1.35,4.87,1.81,1.81,0,0,1-.07.69c-.91,1.72-2.73,2-4.28,2.65-2.21.62-4.33,1.5-6.48,2.31a8.4,8.4,0,0,0-1.73.71c-.72.31-1.31.86-2,1.18-1.37.67-3,.78-4.15,1.88a2.61,2.61,0,0,0-.19.79,7.54,7.54,0,0,1-.06.82,10.88,10.88,0,0,0-.19,2.49l.06.88c.2,1.19.89,1.12,1.77.75A40.58,40.58,0,0,0,65.1,53c1.87-.75,3.43-2,5.2-3,1.5-.56,2.94-1.87,4.6-.36a6.61,6.61,0,0,1,.65,4c0,1.38,0,2.75,0,4.13,0,.79,0,1.58-.07,2.37-.25,6.15-.36,12.3-1.17,18.42-.48,3.3.19,6.61-.1,9.91.19,2.14-1.41,3.15-2.84,4.08C66.07,96,61,99.76,55.35,102.63Z"/><path class="cls-2" d="M95.08,63.62c0,3.89-1,7.65-1.43,11.48a2.29,2.29,0,0,1-1,1.76Q85.3,81.76,78,86.65a5.09,5.09,0,0,1-1.34.39c-1.19-1.34-1.88-2.49.88-2.35.15,0,.22.26.41.11a1.92,1.92,0,0,1-.48-.91c-.35-5.09,1.26-10,1.27-15.11,0-2.56,0-5.17.15-7.74A7.89,7.89,0,0,1,80,58.73c1.07-1.67.66-3.39.19-5.12-.23-3.33-.59-6.71,2.84-8.86a6.69,6.69,0,0,1,2.24-1.06A9.23,9.23,0,0,0,87,43.12c.28-.15.57-.27.86-.4,5.66-2.47,5.66-2.47,5-8.38,2-.24,3.38.88,3.55,3.22a32.38,32.38,0,0,1-.62,8C94.78,51.54,94.05,57.55,95.08,63.62Z"/><path class="cls-3" d="M51.1,101.91c-6.39-5-13.14-9.48-19.78-14.12-5.57-3.91-11.1-7.87-16.42-12.12-.61-3.85-.56-7.76-1.11-11.62-.19-1.35-.13-2.8-1-4h0C13,53.16,11.15,46.43,11,39.55a8,8,0,0,1,1.22-4.7c1.47-1.1,1.76.2,2,1.12a13.89,13.89,0,0,1,.27,3.76,1.5,1.5,0,0,1-.43,1.1,5,5,0,0,0,.65-.22c2.93.16,5.06,2.36,7.77,3.07C24,44.79,26,45.06,26.9,46.81a4,4,0,0,1,.31,1.13,102.78,102.78,0,0,0,1.31,15c.05,5.13,1.39,10.18,1.09,15.33a18.49,18.49,0,0,1,.58,3.47c.18,1.19.9,1.21,1.8.89,1.1-.29,1.07-1.17,1.05-2A4,4,0,0,1,34,77.69a1,1,0,0,1,1,.13c1.43,2.26.67,4.78.75,7.17,0,1.86.3,3.47,2,4.56A3.4,3.4,0,0,1,39,91.28c3.66,3.63,8.15,6.18,12.22,9.28C52,101.14,52.76,101.62,51.1,101.91Z"/><path class="cls-4" d="M39,91.28a1.39,1.39,0,0,1-1.4-.71,10,10,0,0,1-2.2-7.15,21.22,21.22,0,0,0-.88-7.88A8.51,8.51,0,0,1,34.77,69c1-2.14-.68-.87-1.26-1a2.27,2.27,0,0,1-1-1.31c-.32-5.65-1.79-11.27-.37-17,2.28-1.55,3.54-.57,4.29,1.71-1,.8-.24,1.28.41,1.4,2,.35,2.35,1.69,2.2,3.37-.42,5,.77,10,.06,15A7.86,7.86,0,0,0,40,76.64c1.06,1.76-.17,4,.34,6.11.42,1.77.06,3.73.09,5.61C40.47,89.6,40.33,90.72,39,91.28Z"/><path class="cls-5" d="M12.86,34.43a39.43,39.43,0,0,0-.8,9.75,6.32,6.32,0,0,0,0,1.75c1.81,4.65,1.35,9.39.65,14.14-1.58-2-.74-4.55-1.06-6.79C10.64,45.89,9.39,38.49,9.22,31c1-2.65,3.23-1.55,4.75-1.06,3,1,5.55,3.12,9,2.19.69-.19,1.15.68,1.6,1.21.28.32.45,1.05,1,.63,2.78-2,3.62.52,4.93,2,1.16,1.32,2.21,2.8,4.34,1.36,1-.68,1.51.48,1.74,1.13.37,1.05.82,2.31-.62,3.07l-1.22.65C32.57,43.32,31,41.59,29.1,41c-1.12-.6-2.36-1-3.51-1.48a12.22,12.22,0,0,0-1.75-.64c-.3-.08-.6-.18-.89-.28-2-.78-4.27-1.09-6-2.55a10.54,10.54,0,0,0-2-.94C14.21,34.92,13.72,34.14,12.86,34.43Z"/><path class="cls-6" d="M29.07,40.21c2,.49,3.67,1.71,5.71,2,.9.6,2.18.48,2.84,1.53.3,1-.11,2.4,1.59,2.41a.38.38,0,0,1,.32.48.61.61,0,0,0,.1-.63c.56-.94,1.57-.28,2.27-.67l1.62.61c4.94,1.87,5.95,3.62,4.63,8.76-.39,1.48-.79-.51-1.32-.28-.41-.43-1.09-.38-1.51-.8-.74-1.32-2.4-.88-3.22-1.62a30.93,30.93,0,0,1,3.12,1.44c.38.62,1.13.57,1.66.93-.53.94-1.26.78-2.08.45-2.11-.88-4.23-1.73-6.35-2.59-.27-.17-.54-.34-.82-.5l-1.22-.28c-.83-1.47-2.33-1.7-3.78-2,.13-.77,0-1.32-1-1.33-.32-.38-.45-.92-1-1.13a3.06,3.06,0,0,1-1.16-.25,6.72,6.72,0,0,1-1.19-1.31c-.73-1.2-2.08-1.92-2.57-3.3a1.8,1.8,0,0,1,.36-1.45C27.08,40.13,28,39.51,29.07,40.21Z"/><path class="cls-7" d="M79.66,60.82a65.28,65.28,0,0,1-1,17.65c-.32,1.9.57,3.91-.57,5.71-3.69.54-4.43,0-4.61-3.4a4.57,4.57,0,0,0-.29-2.37q.64-9.19,1.28-18.38a6.46,6.46,0,0,1,3.51-1.87,2.2,2.2,0,0,1,1,.3C79.61,59.1,79.41,60,79.66,60.82Z"/><path class="cls-8" d="M66.7,44.55c2.43-.46,4.51-2,7-2.29a22.2,22.2,0,0,0,5-1.43c1.16-.59,2.63-.95,3.46.5s-.67,2-1.41,2.85-1.59,1-2.23,1.7c-.11.16-.22.33-.34.49l.06-.09a1.49,1.49,0,0,1,1.84-.77c2.2,1.61-.17,2.51-.57,3.72L79,50c-.49.88-.15,1.82-.21,2.73-.11,1.47-.67,2.47-2.39,2.17a1.41,1.41,0,0,1-.7-.62,19.08,19.08,0,0,1,.07-4.07l.16-.25a1.65,1.65,0,0,0-.66-.21,1.36,1.36,0,0,1-.52-.62c-.29-.59.2-1.16,0-1.75a.87.87,0,0,1-.83.93c-1-1.13-2.58,1.83-3.36-.51.11-.35-.24-.89.43-1-.69,0-.34.6-.51.9-.67,1-1.32.4-2,0C67.93,46.6,66.53,46.05,66.7,44.55Z"/><path class="cls-9" d="M92.91,34.34c2.16,1.79,2,6.13-.23,7.23-1.76.85-3.43,2-5.46,2.12-1.89-.15-3.17-.8-2.55-3-3.23,1.72-2.5-.73-2.52-2.39,2.24-2.12,5.16-2.44,8-3A3.7,3.7,0,0,0,92.91,34.34Z"/><path class="cls-5" d="M90.14,35.26c-1.54,2.24-4.36,1.61-6.38,2.8-.46.27-1.12.21-1.54.66-1,1.51-2.28,2.41-4.18,1.44-.7-.83-2.11-1.51-.89-2.86a3.73,3.73,0,0,0,1.09-3.08c-.08-1.31,1.52-2.3,2.41-1.18,2.29,2.87,4.49.66,6.66.22.84-.17,1.48-1.07,2.56-.6C91.55,33.4,89,34.51,90.14,35.26Z"/><path class="cls-10" d="M78,40.16c1.54,0,2.7-1.22,4.18-1.44,2.29-.42-.37,2.1,1.12,2a21.67,21.67,0,0,0,3-1,1,1,0,0,1,1.31.87c0,1.27-.82.68-1.44.5a1.25,1.25,0,0,0-1.32.16c.16,1.39,1.72,1.46,2.33,2.44h0c-.32.49-1,.33-1.37.67l-2.08.84a1.27,1.27,0,0,1-.91-.55c-.4-.51-.27.15-.42.22a2.38,2.38,0,0,1-2.25,1c-.81-.08-1.43.44-2.12.71h0c.22-2.41,2.59-3.09,4.15-5.18-3.13-.48-5.74,1.76-8.52.87Z"/><path class="cls-11" d="M70.22,50.83a11,11,0,0,1-4.83,2.93c-1.59.68-3.22-.25-4.82.1a2.72,2.72,0,0,1-2.33-1,4.33,4.33,0,0,1,.69-2.8C60.34,47.86,64,47.35,67,49a1.55,1.55,0,0,1-.06,1c-.27.62-1.3.39-1.37,1.21-.15.22-.1.43,0,.38a2.78,2.78,0,0,0,.58-.72c.2-.24.39-.45.61-.67a4.07,4.07,0,0,1,.75-.56,2.71,2.71,0,0,1,1.44-.05A1.78,1.78,0,0,1,70.22,50.83Z"/><path class="cls-12" d="M66.74,49.4c-1.39-1.52-2.82.18-4.17-.07a4,4,0,0,0-3.64.77h0a1.48,1.48,0,0,1-.55-.71c1-2.59,3.35-2.47,5.48-2.84,1.09,0,2-.72,3.16-.59a1.4,1.4,0,0,1,1.33,1.14c.23.29-1.42.72.14,1,1.31.24,1.79,1,.32,2l-1.37,0A1.38,1.38,0,0,1,66.74,49.4Z"/><path class="cls-13" d="M73.15,78.41a4.75,4.75,0,0,1,.54,1.26c.39,3.74.47,3.84,4.36,4.51,0,.43.68,1.46-.18,1.17-2.68-.89-1,1-1.23,1.69h0c-.39.39-1,.27-1.41.72h0a6,6,0,0,0-.72.7h0a9.33,9.33,0,0,0-.73.68l0,.05c-1.51-2.07-.46-4.43-.73-6.65A29.91,29.91,0,0,1,73.15,78.41Z"/><path class="cls-14" d="M68.8,50.08c.72-1.14-.12-1.17-.91-1.56-1.33-.65-.85-1.13.35-1.26h.47c.52,0,1,.88,1.54.1.19-.45.42-.47.68-.06s.43,1.16.54.64c.84-3.87,1.58-.31,2.33,0l-.07.33-.32.08c.1.18.25,0,.38.06a1,1,0,0,1,.93.7l-.24.36c-1.53.12-2.7,1.36-4.26,1.39Z"/><path class="cls-15" d="M60.94,53.05c1.72-1.25,2.92.82,4.45.71-2,1.39-4.4,2-6.78,3.25L58.2,53.7C58.92,52.65,60.3,54.45,60.94,53.05Z"/><path class="cls-16" d="M41.9,45.31c-.49.81-1.72.37-2.16,1.28h0c-3.37.31-3.42.25-2.12-2.86l.72.09a.5.5,0,0,0,.68.08.78.78,0,0,1,.72.61c.37.33.93.29,1.29.64Z"/><path class="cls-17" d="M76.58,49.39c-.93,1.57,1.42,3.58-.66,5-.73.36-1-.14-1.3-.66l-.14-4.29v0c.26-.33.51-.31.75,0H76C76.15,49.06,76.36,49.05,76.58,49.39Z"/><path class="cls-18" d="M78.07,58.6c-1.14.67-2.08,1.83-3.64,1.43l.17-2.15c.61-.64-.26-2,1.1-2.27.68.2,1,.93,1.71,1.13l.39.14a1.21,1.21,0,0,1,.59.57A1.06,1.06,0,0,1,78.07,58.6Z"/><path class="cls-19" d="M68.71,47.26h-.47c-.32-.64-.94-.68-1.54-.78-.54-.33-1.73.07-1.4-1.25l1.4-.68C67.45,45.4,69.16,45.53,68.71,47.26Z"/><path class="cls-20" d="M60.94,53.05c.34.31.93.59,1,.91,0,.74-.64.41-1,.42-1,0-1.65-.91-2.66-.68l0-.8Z"/><path class="cls-21" d="M75.9,55.71c-1,.4-.43,1.71-1.3,2.17l0-4.15,1.3.66h0A.87.87,0,0,1,75.9,55.71Z"/><path class="cls-22" d="M65.3,45.23l1.4,1.25c-.94.41-1.87,1.58-2.85.06C64.15,45.9,64.5,45.32,65.3,45.23Z"/><path class="cls-23" d="M41,45.14c-.53,0-1.06,0-1.29-.64C40.31,44.45,40.85,44.44,41,45.14Z"/><path class="cls-11" d="M58.37,49.38l.55.71C58.48,50.05,58.34,49.78,58.37,49.38Z"/><path class="cls-24" d="M39,43.89c-.28.39-.51.36-.68-.08A1.06,1.06,0,0,1,39,43.89Z"/><path class="cls-4" d="M37.63,51.71a.82.82,0,0,1,.82.5A.89.89,0,0,1,37.63,51.71Z"/><path class="cls-2" d="M75.23,87.75A1.32,1.32,0,0,1,76.64,87,1.39,1.39,0,0,1,75.23,87.75Z"/><path class="cls-2" d="M74.51,88.45l.72-.7Z"/><path class="cls-2" d="M73.78,89.13l.73-.68A.94.94,0,0,1,73.78,89.13Z"/><path class="cls-25" d="M12.76,60.07c2,1.24,2.07,3.28,2.11,5.23.07,3.46.55,6.92,0,10.37A50.52,50.52,0,0,1,12.76,60.07Z"/><path class="cls-26" d="M75.9,55.71l0-1.32c1.41.09,2.34-.33,2.07-2a17.37,17.37,0,0,1-.46-2.72c0-1.21.78-.25,1.2-.28.82,1.22.07,2.65.51,3.92a1.46,1.46,0,0,1,.3.53,3,3,0,0,0-.38-.67c-.25-1.26.36-2.61-.41-3.8.61-.69,0-2.12,1.54-2.32.48-.07-.05-.79-.11-1.21.5-.82,1.43-1,2.17-1.44.2-.31.41-.33.62,0l.79.81c-3.93,1.88-2.48,5.48-2.73,8.53a13.08,13.08,0,0,1,.21,3.53c-.78,1.69-1.72.23-2.59.12a1.76,1.76,0,0,1-.15-1.31c-.13.41,0,.92-.56,1.14h-.6c-.16.44-.41.9-.89.9-.71,0-.45-.66-.5-1.05S75.92,56.17,75.9,55.71Z"/><path class="cls-27" d="M78.83,57.2c1-.83,1.38.19,1.89.74s.61.9.07,1.4l-1.13,1.48c-1-.42-.87-1.35-.91-2.19A.92.92,0,0,1,78.83,57.2Z"/><path class="cls-28" d="M80.79,59.34l-.07-1.4.31-4.2C81.79,55.64,82.12,57.53,80.79,59.34Z"/><path class="cls-9" d="M85.84,44.37a1.52,1.52,0,0,1,1.37-.67A1.17,1.17,0,0,1,85.84,44.37Z"/><path class="cls-29" d="M31.94,48c1.26-.06,1.09.6.69,1.38-.58,3.27,0,6.53.35,9.75a71.64,71.64,0,0,1,.28,8,15.28,15.28,0,0,0-.78,1.57,6.6,6.6,0,0,0,0,3.58,16.66,16.66,0,0,1,.48,5.16c-.3,2.83-1,3.14-3.79,1.73-1.29-3.39-.58-7-1.31-10.52a33.78,33.78,0,0,1-.25-5.53c-.16-1.19-.86-2.48.59-3.39a1.64,1.64,0,0,1,.9.11c.27.25.38.62.64.87a.92.92,0,0,0,.57,0,2.2,2.2,0,0,0,.47-.37,1.52,1.52,0,0,0,0-1,5.84,5.84,0,0,0-1.15-1.88c-.22-.22-.41-.46-.61-.7a4.46,4.46,0,0,1-1-1.59,1.89,1.89,0,0,1,.09-.94,2.85,2.85,0,0,1,1-1c1.87-1,.69-3,1.6-4.35A1.57,1.57,0,0,1,31.94,48Z"/><path class="cls-30" d="M29.13,79.19c.25-.23.54-.69.76-.67,2.06.27,2,.29,2.07-2,.08-1.56-.52-3-.69-4.45.84-1.29.08-2.83.66-4.16a1.26,1.26,0,0,1,1.33-.76L34,68a1.3,1.3,0,0,1,.56,1.18,7.55,7.55,0,0,0-.07,1.9c.09,1.73.13,3.45.28,5.17a2.46,2.46,0,0,1-.59,1.49L34,81.31c-.68.56-.62,1.63-1.45,2.08l-3,1.35A11.89,11.89,0,0,1,29.13,79.19Z"/><path class="cls-1" d="M34,69.11,34,68l.23-2.66c1.95,1,3.14,2.06,1.47,4-1.29,1.48-.77,3.34-.5,4.58a49.08,49.08,0,0,1,1,11.7c-.05,1.9,1.9,3,1.48,4.94-2.39-1-3.11-2.83-2.89-5.36s.05-4.94.05-7.42c-.5-.33-.24-1-.65-1.4L34,70.2A1,1,0,0,1,34,69.11Z"/><path class="cls-31" d="M29.82,56.54c1.29.53,1.57,1.79,2.08,2.88-.63.56,0,1.53-.7,2.07l-.69,0A1.66,1.66,0,0,1,30,59.66c0-.16.3-.25.11-.44a1.13,1.13,0,0,1-.54.4,3,3,0,0,1-.23.27l-.31.18c-2,.32-1,2-1.42,3.07a76,76,0,0,1-1.16-15.87l.41-.2.43.11a2,2,0,0,1,.59.54.83.83,0,0,1,.13.61l-.18.2.66.13c2.64,1.38,2.84,3.07.65,5.06l-.57.69a2.21,2.21,0,0,0-.51-.13,1.47,1.47,0,0,0,.4.83,2.26,2.26,0,0,1,1.36,1.39Z"/><path class="cls-32" d="M26.3,42.33a4.53,4.53,0,0,1,2.79,2.8.68.68,0,0,1,.24.59c0,.22-.09.33-.14.33-.86.91-2,.49-3,.61L22,44.39a15.12,15.12,0,0,0-1.79-2,1.93,1.93,0,0,1,0-1.4c.92-1.46,2.22-1.12,3.53-.76a4.74,4.74,0,0,1,.88.42C25.3,41.06,25.66,41.83,26.3,42.33Z"/><path class="cls-33" d="M20.56,42.33c1.5,0,1.43,1.05,1.47,2.06-2.8-.74-5.14-2.48-7.79-3.52h0c-1.44-1.94-.06-4.48-1.37-6.44.71-1,1.41-.7,2.1,0C16.43,37.37,17.21,40.76,20.56,42.33Z"/><path class="cls-34" d="M26.19,46.66c.69-1.15,1.8-.7,2.79-.73.56.35.7,1,1.13,1.47.09,1.21-.28,1.81-1.51,1-.56-.35-.83-1.11-1.61-1.16h-.58A1.86,1.86,0,0,1,26.19,46.66Z"/><path class="cls-35" d="M32.57,83.39c.11-1-.08-2.11,1.45-2.08C34.08,82.39,34.2,83.5,32.57,83.39Z"/><path class="cls-4" d="M34.12,76.39a1.45,1.45,0,0,1,.65,1.4h-.62Z"/><path class="cls-5" d="M14.24,40.87l-.33.32A.47.47,0,0,1,14,41a1.19,1.19,0,0,1,.25-.13Z"/><path class="cls-36" d="M24.14,40.91c-1.18.31-2.36-.85-3.54,0-2.1,1.39-3.58-.38-4.22-1.58-.51-.94-1.79-3.19.69-4.16,1.84,1.61,4.49,1.4,6.39,2.87C23.42,39.06,24.7,39.77,24.14,40.91Z"/><path class="cls-37" d="M17.07,35.17c-.88,4.14-.37,5,3.53,5.74l0,1.42c-4.72-1.23-5.13-1.89-5.6-7.87C15.71,34.56,16.54,34.42,17.07,35.17Z"/><path class="cls-14" d="M24.14,40.91A18.18,18.18,0,0,1,22.64,39c-.56-.95.36-.78.82-.94a2.1,2.1,0,0,1,.65.18c.47.27,1.06.17,1.5.51a7,7,0,0,1,3.46,1.48l-2.82.7a1.55,1.55,0,0,1-2.13,0Z"/><path class="cls-36" d="M25.61,38.73a1.44,1.44,0,0,1-1.5-.51A1.5,1.5,0,0,1,25.61,38.73Z"/><path class="cls-38" d="M27,47.28c1-1.18,1.21,0,1.67.54.83,1,1,.31,1.14-.48-.21-.19-.28-.36-.19-.53s.17-.24.24-.24l1.35-.71a2.62,2.62,0,0,1,0,2.8,24.08,24.08,0,0,0,.05,3.4c.29,2-.8,2-2.17,1.66,1.34-2.18.2-3.66-1.41-5l0,0V48L27,47.28Z"/><path class="cls-1" d="M45.41,53.67c-2.27-.15-4.13-1.19-6.24-2.71,3-.45,5.21,1.81,7.85.87-.25,1.07-1.49,1-1.66,1.89Z"/><path class="cls-39" d="M24.12,40.89l2.13,0,.05,1.42A2.08,2.08,0,0,1,24.12,40.89Z"/><path class="cls-40" d="M31.22,48.66l0-2.8c1.47.29.37,1.47.74,2.15Z"/><path class="cls-41" d="M29.85,46.57l-.05.77c-.6-.28-.71-.85-.82-1.41l.11-.8C29.71,45.42,29.79,46,29.85,46.57Z"/><path class="cls-1" d="M46.88,54.35a1.5,1.5,0,0,1-1.47-.68l0,0c.54.12,1.17.05,1.47.68Z"/><path class="cls-16" d="M39.74,46.59l.89.18-.22.35-.67-.54Z"/><path class="cls-42" d="M34.39,46.91a3.39,3.39,0,0,1,.21.61c0,.06-.16.15-.25.22a2.75,2.75,0,0,1-.21-.61C34.13,47.07,34.3,47,34.39,46.91Z"/><path class="cls-43" d="M78.83,57.2l-.08,1.43-.34,0-.34,0-.13-1.38c.16-.31,0-.88.56-.81C78.64,56.42,78.72,56.92,78.83,57.2Z"/><path class="cls-18" d="M76.76,61.59c.2-.14.43-.36.46-.34.23.22.53.44.6.71s-.1.7-.53.4A2.7,2.7,0,0,1,76.76,61.59Z"/><path class="cls-44" d="M77.64,75.18c-.4-.64-.49-1.66,0-1.79s.29.77.32,1.22C78,74.78,77.76,75,77.64,75.18Z"/><path class="cls-45" d="M75.24,49.42l-.75,0a1.36,1.36,0,0,0-1.39-.67.52.52,0,0,1-.18-.47c0-.17.08-.25.12-.25l.76-.09c1.42-.57.12-2.22,1.29-3.08C76.47,46.36,74.65,48,75.24,49.42Z"/><path class="cls-46" d="M76.58,49.39l-.31,0H76c0-.36-.23-.87.41-.89A4,4,0,0,1,76.58,49.39Z"/><path class="cls-26" d="M78.06,46.57l-.28,1c-.67-.55,0-.72.28-1Z"/><path class="cls-47" d="M70.93,47.3a1.94,1.94,0,0,1-.68.06c0-.38-.22-.9.42-1A3.82,3.82,0,0,1,70.93,47.3Z"/><path class="cls-48" d="M83,44.4l-.31,0h-.31c0-.75.22-1.33,1.11-1.3.14,0,.26.21.4.33Z"/><path class="cls-49" d="M66.69,50.9c-1.31,1.23-1.31,1.23-3.06,1.06l1.67-1.1C65.77,50.46,66.24,50.36,66.69,50.9Z"/><path class="cls-50" d="M66.69,50.9l-1.39,0c-.15-1.44,1-.31,1.39-.7l0,0Z"/><path class="cls-14" d="M66.74,49.4l.69.7-.76,0,0,0Z"/><path class="cls-8" d="M73,48l.06.72C72.62,48.52,72.51,48.29,73,48Z"/><path class="cls-51" d="M79.43,53.63c-1.41-1.21-.29-2.84-.7-4.22l0,0c1.2,1.26.53,2.81.67,4.23Z"/><path class="cls-27" d="M79.42,53.62A1.17,1.17,0,0,1,80,55.06c0,.09-.25.2-.26.19-.45-.46-.26-1.07-.35-1.62Z"/><path class="cls-18" d="M77.34,57.23l-.29-.3c.06,0,.14,0,.18.06a.82.82,0,0,1,.11.23Z"/><path class="cls-52" d="M29.63,67.24c-.92-.74-1.49-1.59-.72-2.65a.65.65,0,0,1,.63-.11C30.72,65.32,29.36,66.27,29.63,67.24Z"/><path class="cls-53" d="M31.93,67.91c.1,1.43,1.18,3-.66,4.16C31.43,70.67,30.55,69.11,31.93,67.91Z"/><path class="cls-54" d="M29,60.07l.07-.73,0,0,.72-.69a.45.45,0,0,1,.7.09v2.75H29.7c-.6.1-1,0-.62-.72A4.08,4.08,0,0,0,29,60.07Z"/><path class="cls-55" d="M29.08,60.76l.62.72c-.11.58-.48,1.27-1,.87S28.27,61.14,29.08,60.76Z"/><path class="cls-56" d="M28.42,55.11c-1.12-.6-.86-1.43-.42-2.33.61.44.36,1.1.53,1.63A2.33,2.33,0,0,0,28.42,55.11Z"/><path class="cls-57" d="M31.2,61.49c0-.75-.17-1.59.7-2.07C31.82,60.16,32.26,61.08,31.2,61.49Z"/><path class="cls-4" d="M34,69.11l0,1.09C33.54,69.83,33.53,69.47,34,69.11Z"/><path class="cls-38" d="M27.69,48.73c-.07.53.11,1.12-.33,1.57,0,0-.23-.11-.25-.19a1.1,1.1,0,0,1,.55-1.4Z"/><path class="cls-29" d="M28.22,56.5c0,.09-.06.23-.12.25-.21,0-.31-.08-.26-.34,0-.06.17-.15.22-.13S28.17,56.43,28.22,56.5Z"/><path class="cls-29" d="M29.82,56.54l-.32.28.28-.32Z"/><path class="cls-29" d="M30.5,58.72c-.23,0-.46-.07-.7-.09C30.1,58.09,30.33,58.19,30.5,58.72Z"/><path class="cls-29" d="M29.06,59.34l-.28-.3.3.28Z"/><path class="cls-34" d="M27,47.28a.91.91,0,0,1,.69.71Z"/><path class="cls-58" d="M24.84,44.45l-1-.26c.53-.65.71-.06,1,.27Z"/><path class="cls-58" d="M24.83,44.46l1,.26c-.54.68-.73.1-1-.27Z"/><text class="cls-59" transform="translate(132.55 88.6)"><tspan class="cls-60">T</tspan><tspan x="48.42" y="0">eilUI</tspan></text></svg>